<?xml version="1.0"?>
<svg width="474" height="474" xmlns="http://www.w3.org/2000/svg" xmlns:svg="http://www.w3.org/2000/svg" preserveAspectRatio="xMidYMid meet" version="1.0">
 <g class="layer">
  <title>Layer 1</title>
  <path fill="#3498db" d="m229,1.6c-2.8,1.5 -11.6,5.4 -12.4,5.4c-0.2,0 -3.7,1.5 -7.8,3.4c-11.9,5.5 -18.8,8.6 -19.3,8.6c-0.3,0 -3.8,1.5 -7.7,3.4c-4,1.9 -8.9,4.1 -10.8,4.9c-1.9,0.8 -5.6,2.4 -8.1,3.5c-2.5,1.2 -6.8,3 -9.5,4c-2.7,1.1 -7.4,3.1 -10.4,4.5c-3.1,1.4 -8,3.5 -10.9,4.7c-3,1.1 -7.5,3.1 -10,4.2c-2.5,1.2 -16.7,7.3 -31.6,13.7c-14.8,6.4 -27.7,12.1 -28.5,12.6c-0.8,0.5 -2,1 -2.7,1.1c-2.2,0.4 -10.7,6.9 -15.5,11.9c-4.7,4.9 -10,14.3 -12.2,21.4c-1.3,4.6 -2.1,277.1 -0.7,277.1c0.5,0 4.9,1.8 9.8,4c8.5,4 11.5,5.3 15.8,7.1c1.1,0.5 9.4,4.1 18.5,8c9.1,3.9 22.8,9.8 30.5,13.1c7.7,3.2 15.8,6.7 18,7.8c4.8,2.3 17,7.7 36.5,16c8,3.4 16.5,7.2 19,8.3c2.5,1.2 4.7,2.1 5,2.2c0.3,0 2.7,1.1 5.4,2.3c2.7,1.2 5,2.2 5.2,2.2c0.2,0 2.3,0.9 4.7,1.9c11.1,5.2 30.3,13.1 31.4,13.1c0.7,0 1.3,0.4 1.3,1c0,0.5 2.3,1 5,1c2.8,0 5,-0.5 5,-1c0,-0.6 0.7,-1 1.5,-1c0.8,0 4.7,-1.6 8.8,-3.5c4.1,-1.9 7.6,-3.5 7.9,-3.5c0.4,0 4.1,-1.6 8.5,-3.6c13.3,-6.1 16.6,-7.6 19.3,-8.6c5.3,-1.9 8,-3.3 8,-4c0,-0.5 0.7,-0.8 1.7,-0.8c0.9,0 4.9,-1.6 9,-3.5c4.1,-1.9 7.8,-3.5 8.3,-3.5c0.6,0 1,-0.3 1,-0.8c0,-0.4 1.8,-1.3 4.1,-2c6.2,-1.9 15.9,-6.4 15.9,-7.4c0,-0.4 0.8,-0.8 1.7,-0.8c2.4,0 8.3,-2.3 8.3,-3.2c0,-0.4 1.1,-0.8 2.5,-0.8c1.4,0 2.5,-0.5 2.5,-1c0,-0.6 1.1,-1 2.5,-1c1.4,0 2.5,-0.4 2.5,-0.9c0,-0.5 1,-1.3 2.3,-1.7c4.1,-1.2 10.7,-4.4 10.7,-5.2c0,-0.4 1.3,-0.9 3,-1c1.6,-0.1 5.1,-1.4 7.6,-2.7c2.6,-1.4 6.5,-3 8.6,-3.7c2.1,-0.6 3.8,-1.5 3.8,-2c0,-0.4 0.8,-0.8 1.8,-0.8c1,0 4.4,-1.3 7.7,-3c3.3,-1.6 6.8,-3 7.8,-3c0.9,0 1.7,-0.5 1.7,-1c0,-0.6 0.8,-1 1.9,-1c1,0 2.4,-0.7 3.2,-1.6c0.7,-0.8 2.6,-2.2 4.2,-3.1c7.6,-3.9 17.8,-17.2 19.8,-26.1c0.6,-2.6 1.6,-5.6 2.3,-6.7c0.7,-1.4 1.2,-40.3 1.4,-137l0.4,-135.1l-5.4,-2.3c-2.9,-1.3 -7.1,-3.2 -9.3,-4.1c-2.2,-1 -9.2,-4 -15.5,-6.8c-6.3,-2.8 -16,-6.9 -21.4,-9.2c-5.4,-2.3 -10.6,-4.6 -11.5,-5.1c-1.6,-0.9 -16,-7.1 -35.6,-15.4c-5.5,-2.3 -12.2,-5.2 -15,-6.5c-2.7,-1.3 -5.2,-2.4 -5.5,-2.5c-0.3,0 -2.1,-0.7 -4,-1.6c-1.9,-0.9 -5.1,-2.3 -7,-3.2c-6.3,-2.7 -26.3,-11.4 -34,-14.7c-4.1,-1.8 -9.3,-4 -11.5,-5c-2.2,-1 -8.3,-3.7 -13.5,-5.9c-5.2,-2.3 -10.3,-4.6 -11.2,-5.1c-2.5,-1.4 -11.9,-1.1 -14.8,0.6zm32.5,97.4c1.7,0.5 5.5,1.4 8.5,2c18.7,3.9 40,13.9 56.5,26.5c12.8,9.7 24.7,22.4 34.2,36.5c4.9,7.4 15.3,27.5 15.3,29.8c0,1 0.4,2.2 0.8,2.7c0.9,1 4.3,13.1 6.2,22c3,14.5 3.5,37.8 0.9,51.5c-1.4,7.5 -6.5,25.6 -8.9,31.5c-2.2,5.3 -3,8.3 -3.2,11c-0.3,4.6 -74.4,99.4 -39.3,62.1c35.1,-37.3 48.4,-60.1 46,-61c-0.8,-0.3 -1.5,-1.3 -1.5,-2.3c0,-1.3 0.3,-1.4 1.2,-0.5c0.7,0.7 2.2,1.2 3.5,1.2c1.6,0 2.3,0.6 2.3,2c0,1.1 -0.4,2 -1,2c-0.5,0 -1,0.4 -1,1c0,0.5 2.5,1 5.5,1c3,0 5.5,0.4 5.5,1c0,0.5 1.6,1 3.5,1c2.8,0 3.5,0.4 3.5,2c0,1.6 -0.7,2 -3.5,2c-1.9,0 -3.5,0.4 -3.5,1c0,0.5 1.4,1 3.1,1c4,0 5.9,2 5.9,6.4c0,3.3 0.2,3.6 3,3.6l3,0l0,16l0,16l-3,0l-3,0l0,8c0,7.3 -0.2,8 -2,8c-1.1,0 -2,0.4 -2,1c0,0.5 -1.1,1 -2.5,1c-1.9,0 -2.5,0.5 -2.5,2.3c0,1.3 -0.5,2.8 -1.2,3.5c-0.7,0.7 -2.2,1.2 -3.5,1.2c-2,0 -2.3,0.5 -2.3,3.5c0,3.2 0.2,3.5 3,3.5c2.2,0 3,0.5 3,1.7c0,2.6 -1.6,4.8 -2.4,3.4c-0.4,-0.6 -1.8,-1.1 -3.2,-1.1c-1.9,0 -2.4,0.5 -2.4,2.5c0,1.9 -0.5,2.5 -2.1,2.5c-1.1,0 -2.7,0.7 -3.5,1.5c-0.9,0.8 -2.4,1.5 -3.5,1.5c-1,0 -1.9,0.4 -1.9,1c0,0.5 -0.5,1 -1,1c-0.7,0 -0.8,-1.3 -0.4,-3.6c0.6,-3 0.4,-3.6 -1.5,-4.1c-1.2,-0.3 -2.1,-1.3 -2.1,-2.4c0,-1.5 -0.7,-1.9 -4,-1.9c-3.8,0 -4,0.2 -4,3l0,3l-12,0l-12,0l0,-3c0,-2.9 -0.1,-3 -5,-3c-2.7,0 -5,-0.5 -5,-1c0,-0.6 -0.9,-1 -2,-1c-1.6,0 -2,-0.7 -2,-3.1c0,-1.8 -0.6,-3.7 -1.3,-4.3c-0.7,-0.6 -1.1,-1 -0.9,-0.9c0.3,0.1 7.6,-7.8 9.7,-10.5c0.6,-0.7 1.6,-2 2.4,-2.8c0.8,-0.9 2.2,-3.2 3.2,-5.1c1,-2 3.4,-4.9 5.4,-6.5c2.2,-1.9 3.5,-3.8 3.5,-5.4c0,-1.3 0.4,-2.4 0.9,-2.4c1.9,0 2,-3.2 0.2,-6.5c-1.7,-3.3 25.1,-31.4 -3.5,-1.7c-28.6,29.7 -1.6,2.4 -1.6,3c0,0.7 -0.3,1.1 -0.7,1c-0.5,-0.2 -3.9,2.2 -7.8,5.3c-15.9,12.7 -27.7,19.2 -48.5,26.4c-4.1,1.5 -7.7,2.6 -8,2.5c-0.5,-0.1 -3.1,0.5 -13.5,3.1c-3.2,0.8 -12,1.3 -24.5,1.3c-18.7,0 -21.4,-0.3 -33.5,-3.6c-2.2,-0.6 -4.9,-1.2 -6,-1.3c-2.5,-0.3 -15.4,-5 -22.3,-8.1c-2.9,-1.3 -5.7,-2.4 -6.2,-2.4c-0.6,0 -1,-0.5 -1,-1c0,-0.6 -0.5,-1 -1,-1c-2.5,0 -17.4,-10.3 -29.4,-20.3c-5.3,-4.4 -20.6,-22.3 -25.1,-29.3c-6.7,-10.5 -14.2,-26.3 -17,-35.9c-0.9,-3.3 -2.1,-7.1 -2.6,-8.5c-0.4,-1.4 -1.5,-6.6 -2.3,-11.5c-6.4,-38.8 1.7,-75.6 23.8,-108.4c17.7,-26.3 45.6,-47.6 75,-57.3c11.7,-3.8 20.6,-5.8 31.1,-6.8c10.1,-0.9 36.4,-0.3 41,1zm122.5,194.8c0,0.4 -0.9,0.8 -2,0.9c-2.2,0.2 -2.7,-1.3 -0.7,-2c1.4,-0.5 2.7,0.1 2.7,1.1zm-7.9,14.5c-1.5,1.5 -2.4,0.2 -1.6,-2.4c0.7,-2 0.8,-2.1 1.7,-0.5c0.7,1.2 0.7,2.1 -0.1,2.9zm3.9,-3.3c0,0.5 -0.7,1 -1.5,1c-0.8,0 -1.5,-0.5 -1.5,-1c0,-0.6 0.7,-1 1.5,-1c0.8,0 1.5,0.4 1.5,1zm4,1c0,1.1 -0.4,2 -1,2c-0.5,0 -1,-0.9 -1,-2c0,-1.1 0.5,-2 1,-2c0.6,0 1,0.9 1,2zm26,90.4c0,1.1 -1.9,1.5 -2.5,0.6c-0.3,-0.5 0.1,-1 0.9,-1c0.9,0 1.6,0.2 1.6,0.4zm-47.3,20.9c-0.4,1.2 -3.7,1.9 -3.7,0.8c0,-1.2 0.9,-1.8 2.5,-1.8c0.9,0 1.4,0.5 1.2,1z" id="svg_2"/>
  <path fill="#3498db" d="m206.5,129.4c-10,2.7 -21,7.6 -30,13.5c-6.9,4.5 -8.9,6 -14.9,11.3l-3.1,2.7l1.9,3.3c5.7,9.7 7.6,14.4 7.6,19.8c0,8.5 -4,13.9 -15,20.2c-8.5,4.9 -9.2,6.4 -9.1,17c0.2,10.8 0.2,10.7 -10.6,17.2c-8,4.8 -12.3,9.6 -12.3,14c0,6.1 9.1,12.3 30.5,20.6c10.7,4.2 17.2,8.6 20.1,13.6c3.5,5.9 3.1,10.4 -1.5,18.8c-4.6,8.5 -7.7,16.6 -8.6,22.6c-0.7,5.1 0.2,6.3 10.2,13.3c11.6,8.1 33.9,17.1 44.5,18c2.1,0.2 4.1,0.7 4.5,1c1,1.1 30.1,0.8 34.2,-0.3c2,-0.5 6.8,-1.7 10.6,-2.5c3.9,-0.9 8.8,-2.5 11,-3.4c2.2,-1 5.6,-2.4 7.5,-3.1c1.9,-0.8 4.7,-2.2 6.2,-3.2c1.4,-1 2.9,-1.8 3.2,-1.8c0.3,0 4.3,-2.7 8.9,-5.9c13.1,-9.3 27.6,-26.1 34.2,-39.6c1.1,-2.2 2.3,-4.2 2.6,-4.5c1.1,-0.9 6.9,-16.9 6.9,-18.9c0,-1.1 0.5,-2.3 1,-2.6c0.6,-0.3 1,-1.9 1,-3.5c0,-1.6 0.4,-4 0.9,-5.3c0.5,-1.4 1.5,-6.9 2.1,-12.3c1,-8.3 0.9,-10.5 -0.4,-13.4c-1.4,-3.6 -4.7,-7.1 -6.9,-7.7c-4.1,-1 -11.7,-2.2 -14.6,-2.2l-3.4,-0.1l0.8,4.2c0.3,2.4 0.9,5.8 1.2,7.6c1.1,7 -3.7,17.1 -11.7,24.7c-4.4,4.1 -7,9.6 -7,14.6c0,4.4 -5.2,16.7 -8.7,20.4c-1,1.1 -2.6,3 -3.4,4.2c-3.9,5.7 -18.2,20.2 -21.3,21.7c-5.3,2.5 -9.3,2.1 -12.7,-1.3c-1.6,-1.6 -2.9,-3.9 -2.9,-5.1c0,-1.2 -0.5,-3 -1.1,-4.2c-0.6,-1.1 -1.1,-7.4 -1.1,-14.1c0,-10.6 0.3,-13.2 2.6,-19.9c4.2,-12.7 2,-15 -16.2,-16.7c-11.6,-1.1 -15.2,-2.3 -18.9,-6.3c-2.9,-3.1 -6.3,-14 -6.3,-20c0,-8.9 7.4,-20.5 17.8,-28.1c11.6,-8.6 17.1,-10.1 30.6,-9c8.2,0.8 10.4,0.6 13,-0.6c2.8,-1.5 3.1,-2.1 3.4,-6.9c0.4,-6.6 -1.6,-10.1 -10,-17.4c-6,-5.3 -9.8,-10.9 -9.3,-13.8c0.2,-0.8 1.7,-5.1 3.5,-9.5c2.5,-6.1 3,-8.5 2.4,-10.4c-3.8,-10.6 -41.2,-16.9 -63.9,-10.7z" id="svg_3"/>
  <path fill="#3498db" d="m350,342.5c-0.8,0.9 -0.8,1.5 -0.2,1.5c1.2,0 2.6,-1.9 1.9,-2.6c-0.2,-0.2 -1,0.2 -1.7,1.1z" id="svg_4"/>
  <path fill="#3498db" d="m346,346.5c-0.8,0.9 -0.8,1.5 -0.2,1.5c1.2,0 2.6,-1.9 1.9,-2.6c-0.2,-0.2 -1,0.2 -1.7,1.1z" id="svg_5"/>
  <path fill="#3498db" d="m398,374c0,3.3 0.4,6 1,6c0.6,0 1,-2.7 1,-6c0,-3.3 -0.4,-6 -1,-6c-0.6,0 -1,2.7 -1,6z" id="svg_7"/>
  <path fill="#3498db" d="m386.6,346.8c-1,4.1 -1,4.87 -1,6c0,0.78 0.06,1.69 -0.22,2.44c-0.29,0.77 -0.76,1.67 -0.78,2.56c-0.01,0.44 0.17,-0.35 0.61,-1.17c0.44,-0.83 0.96,-1.41 1.37,-2.24c0.46,-0.91 0.94,-1.37 1.45,-2.19c0.47,-0.76 0.51,-1.62 0.79,-2.6c0.24,-0.82 0.6,-1.39 1.07,-2.4c0.37,-0.79 0.58,-1.6 0.7,-2.4c0.16,-1 0.39,-1.82 0.8,-2.51c0.53,-0.9 1.02,-1.65 1.2,-2.49c0.21,-0.98 0.76,-1.53 0.98,-2.5c0.2,-0.88 0.01,-2.14 -0.48,-1.96c-0.83,0.31 -0.33,1.65 -0.56,2.46c-0.26,0.9 -1.02,1.22 -1.7,1.66c-0.94,0.62 -1.45,1.37 -1.82,1.98c-0.45,0.75 -0.71,1.2 -1.42,2.19c-0.42,0.58 -0.9,1.19 -1.42,1.84c-0.54,0.68 -1.1,1.37 -1.66,2.07c-0.56,0.7 -1.12,1.39 -2.08,2.75c-0.44,0.63 -0.82,1.24 -1.16,1.83c-0.32,0.56 -0.89,1.64 -1.17,2.16c-0.82,1.52 -1.14,2.02 -1.48,2.51c-0.68,1.01 -1.05,1.5 -1.42,2c-0.37,0.5 -1.45,2 -1.79,2.5c-0.34,0.5 -1,1.51 -1.32,2.02c-0.33,0.51 -0.98,1.57 -1.67,2.65c-0.35,0.56 -0.72,1.12 -1.1,1.7c-0.38,0.59 -1.18,1.79 -1.6,2.4c-0.42,0.63 -1.3,1.91 -1.76,2.56c-0.46,0.66 -0.92,1.31 -1.38,1.96c-0.45,0.63 -0.9,1.25 -1.33,1.84c-0.41,0.56 -1.5,1.98 -1.81,2.35c-0.53,0.65 -1.23,1.37 -1.84,2.23c-0.41,0.58 -0.82,1.4 -1.32,2.4c-0.3,0.6 -0.79,1.6 -1.1,2.19c-0.39,0.73 -1.01,1.57 -1.7,2.31c-0.55,0.59 -1.03,1.26 -1.55,1.95c-0.51,0.69 -1.06,1.01 -0.74,0.91c0.84,-0.25 1.2,-1.18 1.39,-2.06c0.19,-0.84 1.17,-1.07 1.81,-1.34l0.85,-0.56l0.42,-0.71" id="svg_12"/>
  <path fill="#3498db" d="m381.6,286.8c0,0 -13,33 -13.6,32.2c-0.6,-0.8 -19.4,31.8 -19.4,31.8c0,0 -19,18 -19.6,17.2c-0.6,-0.8 -6.4,15.8 -7,15c-0.6,-0.8 -9.4,3.8 -10,3c-0.6,-0.8 0.6,12.8 0,12c-0.6,-0.8 17.6,18.8 17,18c-0.6,-0.8 0.6,15.8 0,15c-0.6,-0.8 81.6,-35.2 81.6,-35.2c0,0 11,-57 10.4,-57.8c-0.6,-0.8 1.6,-26.2 1,-27" id="svg_14"/>
  <path fill="#3498db" d="m339.6,427.8c0,0 74,-31 74,-31c0,0 4,-19 3.4,-19.8c-0.6,-0.8 -12.4,-5.2 -13,-6" id="svg_16"/>
 </g>
</svg>