<svg xmlns="http://www.w3.org/2000/svg" viewBox="0 0 80 80" id="database">
  <path d="M69 63V17c0-6.729-12.738-12-29-12s-29 5.271-29 12v46c0 6.729 12.738 12 29 12s29-5.271 29-12zM40 7c16.15 0 27 5.17 27 10S56.15 27 40 27s-27-5.17-27-10S23.85 7 40 7zm0 22c12.439 0 22.808-3.086 27-7.547V28.5c0 4.83-10.85 10-27 10s-27-5.17-27-10v-7.047C17.192 25.914 27.561 29 40 29zm0 11.5c12.439 0 22.808-3.086 27-7.547V40c0 4.83-10.85 10-27 10s-27-5.17-27-10v-7.047c4.192 4.461 14.561 7.547 27 7.547zM40 52c12.439 0 22.808-3.086 27-7.547V51.5c0 4.83-10.85 10-27 10s-27-5.17-27-10v-7.047C17.192 48.914 27.561 52 40 52zM13 63v-7.047c4.192 4.461 14.561 7.547 27 7.547s22.808-3.086 27-7.547V63c0 4.83-10.85 10-27 10s-27-5.17-27-10z"></path>
</svg>
