<?xml version="1.0" encoding="UTF-8"?>
<svg id="Layer_1" data-name="Layer 1" xmlns="http://www.w3.org/2000/svg" xmlns:xlink="http://www.w3.org/1999/xlink" width="100" height="100" viewBox="100 350 75 250">
  <defs>
    <style>
      .cls-1 {
        fill: url(#linear-gradient);
      }

      .cls-1, .cls-2, .cls-3, .cls-4, .cls-5, .cls-6 {
        stroke-width: 0px;
      }

      .cls-7 {
        clip-path: url(#clippath-2);
      }

      .cls-8 {
        isolation: isolate;
      }

      .cls-9 {
        clip-path: url(#clippath-6);
      }

      .cls-3 {
        fill: none;
      }

      .cls-10 {
        clip-path: url(#clippath-1);
      }

      .cls-11 {
        clip-path: url(#clippath-4);
      }

      .cls-4 {
        fill: #fff;
      }

      .cls-5 {
        fill: url(#linear-gradient-2);
      }

      .cls-6 {
        fill: #0092c8;
      }

      .cls-12 {
        clip-path: url(#clippath);
      }

      .cls-13 {
        clip-path: url(#clippath-3);
      }

      .cls-14 {
        mask: url(#mask);
      }

      .cls-15 {
        clip-path: url(#clippath-5);
      }

      .cls-16 {
        opacity: .15;
      }

      .cls-17 {
        opacity: .25;
      }
    </style>
    <clipPath id="clippath">
      <path class="cls-3" d="M112.12,391.89l-61.86,61.86c-14.44,14.44-14.44,38.07,0,52.52l61.86,61.85c14.44,14.44,38.08,14.45,52.53,0l61.86-61.85c14.45-14.45,14.44-38.08,0-52.52l-61.86-61.86c-7.22-7.23-16.74-10.84-26.26-10.84s-19.04,3.61-26.26,10.84"/>
    </clipPath>
    <linearGradient id="linear-gradient" x1="-2.3" y1="387.87" x2=".48" y2="387.87" gradientTransform="translate(-10043.43 -23663.68) rotate(-23) scale(67.56)" gradientUnits="userSpaceOnUse">
      <stop offset="0" stop-color="#0092c8"/>
      <stop offset="1" stop-color="#00afdd"/>
    </linearGradient>
    <mask id="mask" x="-69.74" y="271.89" width="416.23" height="416.23" maskUnits="userSpaceOnUse">
      <g id="SVGID">
        <g>
          <rect class="cls-2" x="34.28" y="375.91" width="208.18" height="208.17"/>
          <g class="cls-8">
            <path class="cls-4" d="M102.73,511.71c17.4-12.59-12.59-25.17-19.99-28.87-7.4-3.7,0-11.11,7.77-14.44,7.78-3.33,5.16,21.13,14.44,11.85,8.89-8.88-15.18-19.25,5.37-31.66,20.55-12.4-9.07-9.07-9.07-20.54s12.96-12.96,12.96-21.84c0-5.81-10.01-6.77-16.93-6.75l-50.65,50.66c-1.13,1.13-2.17,2.3-3.14,3.52.24,9.5,11.63,11.07,18.15,11.07,8.15,0,12.59,12.59,4.45,20.73-8.14,8.15-8.75,22.08-3.43,27.39,3.58,3.58,2.34,10.25,1.15,14.24l9.61,9.6c2.63-8.45,14.11-13.95,29.32-24.96"/>
            <path class="cls-4" d="M134.12,389.59c14-1.8,1.04,9.71,7.69,12.62,6.02,2.63,22.09-5.42,23.85-16.34-7.85-6.63-17.59-9.96-27.3-9.96-4.32,0-8.65.67-12.82,1.99-.77,5.6-.15,12.82,8.57,11.69"/>
            <path class="cls-4" d="M168.31,468.29c-2.33-9.59-24.69-13.08-35.41-5.28-15.8,11.51-18.32,33.66-6.05,34.91,12.27,1.26,23.45,13.14,17.29,24.91-6.16,11.76,7.44,40.44,22.37,19.64,14.93-20.79,7.5-24.85,8.67-36.3,1.17-11.45,15.21-25.97,11.77-30.2-3.45-4.23-16.81-.18-18.64-7.69"/>
            <path class="cls-4" d="M118.07,578.91c6.3,3.44,13.3,5.17,20.29,5.17h.02c10.8,0,21.66-4.12,29.89-12.34l5.22-5.22c-8.9-1.66-39.85,7.49-55.42,12.39"/>
            <path class="cls-4" d="M206.84,497.29c-16.69,5.78-28.24,24.4-18.61,26.96,9.08,2.42,18.71-4.85,25.17,2.36l16.73-16.73c-3.22-6.58-8.41-17.74-23.29-12.59"/>
            <path class="cls-4" d="M152.9,429.3c3.8-.51.81-4.77-1.34-5.71-2.16-.95-9.02-.46-6.48,2.65,1.92,2.35,4.03,3.57,7.82,3.06"/>
            <path class="cls-4" d="M233.56,479.14c-.03-2.22-8.24-4.49-10.4-4.3-2.16.2-2.88,3.84,3.2,5.33,4.59,1.12,7.23,1.19,7.2-1.03"/>
            <path class="cls-4" d="M161.81,412.2c-.92,7.31,6.4,10.05,2.74,13.71s-25.17,11.43-20.11,13.71c13.52,6.09-9.39,5.23,0,14.62,4.66,4.66,19.38-3.57,17.82-9.14-.44-1.58,4.07-7.51,7.67-4.38,3.11,2.71,12.74,5.69,12.74,21.63,0,8.49,7.31,16.77,14.78,14.74,6.2-1.68,7.24-9.48,3.39-12.34-4.92-3.65,8.27-8.06,21.7,6.43,6.2,6.68,16.44-1.47,18.54-1.91h0c-1.83-7.03-5.48-13.68-10.95-19.16l-51.17-51.16c-9.42.98-16.78,10.27-17.15,13.26"/>
          </g>
        </g>
      </g>
    </mask>
    <clipPath id="clippath-1">
      <rect class="cls-3" x="34.29" y="375.92" width="208.17" height="208.17"/>
    </clipPath>
    <clipPath id="clippath-2">
      <path class="cls-3" d="M138.36,375.91c-10.81,0-21.67,4.12-29.88,12.34l-61.86,61.85c-8.09,8.09-12.22,18.75-12.33,29.39v.92c.11,10.66,4.22,21.35,12.34,29.46l61.85,61.86c8.22,8.22,19.08,12.35,29.89,12.34h.01c10.81,0,21.67-4.12,29.89-12.34l61.85-61.86c8.23-8.23,12.34-19.09,12.34-29.9,0-10.8-4.11-21.66-12.33-29.88l-61.86-61.86c-8.22-8.23-19.08-12.34-29.88-12.34h-.02Z"/>
    </clipPath>
    <linearGradient id="linear-gradient-2" x1="-4.72" y1="386.98" x2="-1.93" y2="386.98" gradientTransform="translate(-17065.85 -16421.96) rotate(-46) scale(62.32)" gradientUnits="userSpaceOnUse">
      <stop offset="0" stop-color="#8cc63f"/>
      <stop offset=".61" stop-color="#c9e39f"/>
      <stop offset="1" stop-color="#f1f6de"/>
    </linearGradient>
    <clipPath id="clippath-3">
      <rect class="cls-3" x="34.3" y="375.92" width="208.17" height="208.17"/>
    </clipPath>
    <clipPath id="clippath-4">
      <rect class="cls-3" x="34.3" y="375.92" width="208.17" height="208.17"/>
    </clipPath>
    <clipPath id="clippath-5">
      <rect class="cls-3" x="34.3" y="375.91" width="202.83" height="141.35"/>
    </clipPath>
    <clipPath id="clippath-6">
      <rect class="cls-3" x="34.3" y="375.91" width="202.83" height="141.35"/>
    </clipPath>
  </defs>

  <g class="cls-12">
    <polygon class="cls-1" points="-36.65 411.82 209.63 307.27 313.43 551.8 67.14 656.34 -36.65 411.82"/>
  </g>
  <g>
    <g class="cls-14">
      <g class="cls-10">
        <g class="cls-7">
          <polygon class="cls-5" points="-69.74 483.63 134.74 271.89 346.49 476.37 142.01 688.11 -69.74 483.63"/>
        </g>
      </g>
    </g>
    <g class="cls-17">
      <g class="cls-13">
        <g class="cls-11">
          <path class="cls-6" d="M138.38,584.08c-10.81,0-21.67-4.12-29.88-12.33l-61.85-61.86c-8.24-8.23-12.35-19.11-12.34-29.93,0-10.8,4.12-21.65,12.33-29.85l61.86-61.86c8.21-8.22,19.07-12.34,29.88-12.34,10.81,0,21.68,4.11,29.91,12.34l61.85,61.86c8.22,8.21,12.34,19.07,12.33,29.88,0,10.81-4.11,21.68-12.33,29.9l-61.85,61.86c-8.23,8.23-19.09,12.34-29.9,12.33h0ZM53.89,457.37c-6.21,6.22-9.32,14.38-9.33,22.59,0,8.25,3.11,16.44,9.33,22.67l61.86,61.85c6.22,6.22,14.39,9.32,22.62,9.33,8.23,0,16.41-3.11,22.64-9.33l61.85-61.85c6.22-6.23,9.32-14.41,9.33-22.64,0-8.23-3.11-16.4-9.33-22.62l-61.86-61.85c-6.23-6.23-14.41-9.33-22.64-9.33-8.23,0-16.4,3.11-22.62,9.33l-61.86,61.85Z"/>
        </g>
      </g>
    </g>
    <g class="cls-16">
      <g class="cls-15">
        <g class="cls-9">
          <path class="cls-4" d="M237.13,459.38c-1.85-3.33-4.17-6.46-6.99-9.27l-61.86-61.85c-8.23-8.23-19.1-12.34-29.91-12.34-10.8,0-21.66,4.12-29.88,12.34l-61.86,61.85c-8.21,8.21-12.34,19.05-12.33,29.85,0,10.81,4.1,21.69,12.34,29.93l7.37,7.38c13.08-20.34,76.2-106.16,183.12-57.89"/>
        </g>
      </g>
    </g>
  </g>
</svg>