<svg xmlns="http://www.w3.org/2000/svg" enable-background="new 0 0 64 64" viewBox="0 0 64 64" id="infographics">
  <path d="M63.51,32.49H2.89c-0.27,0-0.49-0.22-0.49-0.49c0-0.27,0.22-0.49,0.49-0.49h60.61c0.27,0,0.49,0.22,0.49,0.49C64,32.27,63.78,32.49,63.51,32.49z"></path>
  <path d="M9.15 43.64H6.18c-.27 0-.49-.22-.49-.49V32c0-.27.22-.49.49-.49.27 0 .49.22.49.49v10.66h1.99V32c0-.27.22-.49.49-.49.27 0 .49.22.49.49v11.15C9.65 43.42 9.43 43.64 9.15 43.64zM14.68 49H11.7c-.27 0-.49-.22-.49-.49V32c0-.27.22-.49.49-.49.27 0 .49.22.49.49v16.02h1.99V32c0-.27.22-.49.49-.49.27 0 .49.22.49.49v16.51C15.17 48.78 14.95 49 14.68 49zM20.21 40.62h-2.98c-.27 0-.49-.22-.49-.49V32c0-.27.22-.49.49-.49.27 0 .49.22.49.49v7.64h1.99V32c0-.27.22-.49.49-.49.27 0 .49.22.49.49v8.13C20.7 40.4 20.48 40.62 20.21 40.62zM25.73 52.47h-2.98c-.27 0-.49-.22-.49-.49V32c0-.27.22-.49.49-.49.27 0 .49.22.49.49v19.49h1.99V32c0-.27.22-.49.49-.49s.49.22.49.49v19.98C26.23 52.25 26.01 52.47 25.73 52.47zM31.26 47.65h-2.98c-.27 0-.49-.22-.49-.49V32c0-.27.22-.49.49-.49.27 0 .49.22.49.49v14.66h1.99V32c0-.27.22-.49.49-.49.27 0 .49.22.49.49v15.15C31.75 47.43 31.53 47.65 31.26 47.65z"></path>
  <g>
    <path d="M2.8,59.16c-0.27,0-0.49-0.22-0.49-0.49V5.33c0-0.27,0.22-0.49,0.49-0.49s0.49,0.22,0.49,0.49v53.34C3.29,58.94,3.07,59.16,2.8,59.16z"></path>
  </g>
  <g>
    <path d="M2.8 7.1H.49C.22 7.1 0 6.88 0 6.61c0-.27.22-.49.49-.49H2.8c.27 0 .49.22.49.49C3.29 6.88 3.07 7.1 2.8 7.1zM2.8 12.18H.49C.22 12.18 0 11.96 0 11.69c0-.27.22-.49.49-.49H2.8c.27 0 .49.22.49.49C3.29 11.96 3.07 12.18 2.8 12.18zM2.8 17.26H.49C.22 17.26 0 17.04 0 16.76s.22-.49.49-.49H2.8c.27 0 .49.22.49.49S3.07 17.26 2.8 17.26zM2.8 22.34H.49C.22 22.34 0 22.11 0 21.84s.22-.49.49-.49H2.8c.27 0 .49.22.49.49S3.07 22.34 2.8 22.34zM2.8 27.41H.49C.22 27.41 0 27.19 0 26.92s.22-.49.49-.49H2.8c.27 0 .49.22.49.49S3.07 27.41 2.8 27.41zM2.8 32.49H.49C.22 32.49 0 32.27 0 32c0-.27.22-.49.49-.49H2.8c.27 0 .49.22.49.49C3.29 32.27 3.07 32.49 2.8 32.49zM2.8 37.57H.49C.22 37.57 0 37.35 0 37.08s.22-.49.49-.49H2.8c.27 0 .49.22.49.49S3.07 37.57 2.8 37.57zM2.8 42.65H.49C.22 42.65 0 42.43 0 42.16c0-.27.22-.49.49-.49H2.8c.27 0 .49.22.49.49C3.29 42.43 3.07 42.65 2.8 42.65zM2.8 47.73H.49C.22 47.73 0 47.51 0 47.24c0-.27.22-.49.49-.49H2.8c.27 0 .49.22.49.49C3.29 47.51 3.07 47.73 2.8 47.73zM2.8 52.81H.49C.22 52.81 0 52.59 0 52.31c0-.27.22-.49.49-.49H2.8c.27 0 .49.22.49.49C3.29 52.59 3.07 52.81 2.8 52.81zM2.8 57.89H.49C.22 57.89 0 57.66 0 57.39c0-.27.22-.49.49-.49H2.8c.27 0 .49.22.49.49C3.29 57.66 3.07 57.89 2.8 57.89z"></path>
  </g>
  <g>
    <path d="M37.48 32.49c-.27 0-.49-.22-.49-.49V21.34h-1.99V32c0 .27-.22.49-.49.49s-.49-.22-.49-.49V20.85c0-.27.22-.49.49-.49h2.98c.27 0 .49.22.49.49V32C37.97 32.27 37.75 32.49 37.48 32.49zM43 32.49c-.27 0-.49-.22-.49-.49V15.98h-1.99V32c0 .27-.22.49-.49.49-.27 0-.49-.22-.49-.49V15.49c0-.27.22-.49.49-.49H43c.27 0 .49.22.49.49V32C43.5 32.27 43.28 32.49 43 32.49zM48.53 32.49c-.27 0-.49-.22-.49-.49v-7.64h-1.99V32c0 .27-.22.49-.49.49-.27 0-.49-.22-.49-.49v-8.13c0-.27.22-.49.49-.49h2.98c.27 0 .49.22.49.49V32C49.02 32.27 48.8 32.49 48.53 32.49zM54.06 32.49c-.27 0-.49-.22-.49-.49V12.51h-1.99V32c0 .27-.22.49-.49.49-.27 0-.49-.22-.49-.49V12.02c0-.27.22-.49.49-.49h2.98c.27 0 .49.22.49.49V32C54.55 32.27 54.33 32.49 54.06 32.49zM59.58 32.49c-.27 0-.49-.22-.49-.49V17.34H57.1V32c0 .27-.22.49-.49.49-.27 0-.49-.22-.49-.49V16.85c0-.27.22-.49.49-.49h2.98c.27 0 .49.22.49.49V32C60.08 32.27 59.86 32.49 59.58 32.49z"></path>
  </g>
</svg>
