<svg xmlns="http://www.w3.org/2000/svg" width="512" height="512" viewBox="0 0 512 512" id="server">
  <g transform="scale(8)">
    <path d="M58,21c0.553,0 1,-0.448 1,-1v-12c0,-0.552 -0.447,-1 -1,-1h-52c-0.552,0 -1,0.448 -1,1v12c0,0.552 0.448,1 1,1h25v4h-25c-0.552,0 -1,0.448 -1,1v12c0,0.553 0.448,1 1,1h25v4h-25c-0.552,0 -1,0.447 -1,1v12c0,0.553 0.448,1 1,1h52c0.553,0 1,-0.447 1,-1v-12c0,-0.553 -0.447,-1 -1,-1h-25v-4h25c0.553,0 1,-0.447 1,-1v-12c0,-0.552 -0.447,-1 -1,-1h-25v-4h25Zm-1,34h-50v-10h50v10Zm0,-18h-50v-10h50v10Zm-50,-28h50v10h-50v-10Z"></path>
    <path d="M10 13h30c.553 0 1-.448 1-1 0-.552-.447-1-1-1h-30c-.552 0-1 .448-1 1 0 .552.448 1 1 1zM41 16c0-.552-.447-1-1-1h-30c-.552 0-1 .448-1 1 0 .552.448 1 1 1h30c.553 0 1-.448 1-1zM50 17c1.654 0 3-1.346 3-3 0-1.654-1.346-3-3-3-1.654 0-3 1.346-3 3 0 1.654 1.346 3 3 3zm0-4c.552 0 1 .449 1 1 0 .551-.448 1-1 1-.552 0-1-.449-1-1 0-.551.448-1 1-1zM9 30c0 .552.448 1 1 1h30c.553 0 1-.448 1-1 0-.552-.447-1-1-1h-30c-.552 0-1 .448-1 1zM40 33h-30c-.552 0-1 .447-1 1 0 .553.448 1 1 1h30c.553 0 1-.447 1-1 0-.553-.447-1-1-1zM50 35c1.654 0 3-1.346 3-3 0-1.654-1.346-3-3-3-1.654 0-3 1.346-3 3 0 1.654 1.346 3 3 3zm0-4c.552 0 1 .449 1 1 0 .551-.448 1-1 1-.552 0-1-.449-1-1 0-.551.448-1 1-1zM9 48c0 .553.448 1 1 1h30c.553 0 1-.447 1-1 0-.553-.447-1-1-1h-30c-.552 0-1 .447-1 1zM40 51h-30c-.552 0-1 .447-1 1 0 .553.448 1 1 1h30c.553 0 1-.447 1-1 0-.553-.447-1-1-1zM50 53c1.654 0 3-1.346 3-3 0-1.654-1.346-3-3-3-1.654 0-3 1.346-3 3 0 1.654 1.346 3 3 3zm0-4c.552 0 1 .448 1 1 0 .552-.448 1-1 1-.552 0-1-.448-1-1 0-.552.448-1 1-1z"></path>
  </g>
</svg>
