<svg xmlns="http://www.w3.org/2000/svg" width="32" height="32" enable-background="new 0 0 32 32" viewBox="0 0 32 32" id="web-coding">
  <circle cx="7.5" cy="3.5" r=".5" fill="black"></circle>
  <circle cx="5.5" cy="3.5" r=".5" fill="black"></circle>
  <circle cx="3.5" cy="3.5" r=".5" fill="black"></circle>
  <path fill="black" d="M26.5,6h-25C1.224,6,1,5.776,1,5.5S1.224,5,1.5,5h25C26.776,5,27,5.224,27,5.5S26.776,6,26.5,6z"></path>
  <path fill="black" d="M25.5,31h-23C1.673,31,1,30.327,1,29.5v-27C1,1.673,1.673,1,2.5,1h23C26.327,1,27,1.673,27,2.5v8
				c0,0.276-0.224,0.5-0.5,0.5S26,10.776,26,10.5v-8C26,2.225,25.775,2,25.5,2h-23C2.225,2,2,2.225,2,2.5v27
				C2,29.775,2.225,30,2.5,30h23c0.275,0,0.5-0.225,0.5-0.5c0-0.276,0.224-0.5,0.5-0.5s0.5,0.224,0.5,0.5
				C27,30.327,26.327,31,25.5,31z"></path>
  <g>
    <path fill="black" d="M5.5 21h-1C4.224 21 4 20.776 4 20.5S4.224 20 4.5 20h1C5.776 20 6 20.224 6 20.5S5.776 21 5.5 21zM5.5 27h-1C4.224 27 4 26.776 4 26.5S4.224 26 4.5 26h1C5.776 26 6 26.224 6 26.5S5.776 27 5.5 27zM5.5 25h-1C4.224 25 4 24.776 4 24.5S4.224 24 4.5 24h1C5.776 24 6 24.224 6 24.5S5.776 25 5.5 25zM5.5 23h-1C4.224 23 4 22.776 4 22.5S4.224 22 4.5 22h1C5.776 22 6 22.224 6 22.5S5.776 23 5.5 23zM14.5 25h-7C7.224 25 7 24.776 7 24.5S7.224 24 7.5 24h7c.276 0 .5.224.5.5S14.776 25 14.5 25zM9.5 27h-2C7.224 27 7 26.776 7 26.5S7.224 26 7.5 26h2c.276 0 .5.224.5.5S9.776 27 9.5 27zM16.5 27h-2c-.276 0-.5-.224-.5-.5s.224-.5.5-.5h2c.276 0 .5.224.5.5S16.776 27 16.5 27zM13.5 23h-6C7.224 23 7 22.776 7 22.5S7.224 22 7.5 22h6c.276 0 .5.224.5.5S13.776 23 13.5 23zM12.5 27h-1c-.276 0-.5-.224-.5-.5s.224-.5.5-.5h1c.276 0 .5.224.5.5S12.776 27 12.5 27zM5.5 19h-1C4.224 19 4 18.776 4 18.5S4.224 18 4.5 18h1C5.776 18 6 18.224 6 18.5S5.776 19 5.5 19zM5.5 17h-1C4.224 17 4 16.776 4 16.5S4.224 16 4.5 16h1C5.776 16 6 16.224 6 16.5S5.776 17 5.5 17zM5.5 15h-1C4.224 15 4 14.776 4 14.5S4.224 14 4.5 14h1C5.776 14 6 14.224 6 14.5S5.776 15 5.5 15zM9.5 13h-2C7.224 13 7 12.776 7 12.5S7.224 12 7.5 12h2c.276 0 .5.224.5.5S9.776 13 9.5 13zM17.5 13h-3c-.276 0-.5-.224-.5-.5s.224-.5.5-.5h3c.276 0 .5.224.5.5S17.776 13 17.5 13zM23.5 11h-5c-.276 0-.5-.224-.5-.5s.224-.5.5-.5h5c.276 0 .5.224.5.5S23.776 11 23.5 11zM14 17H7.5C7.224 17 7 16.776 7 16.5S7.224 16 7.5 16H14c.276 0 .5.224.5.5S14.276 17 14 17zM11.5 21h-4C7.224 21 7 20.776 7 20.5S7.224 20 7.5 20h4c.276 0 .5.224.5.5S11.776 21 11.5 21zM16.5 11h-3c-.276 0-.5-.224-.5-.5s.224-.5.5-.5h3c.276 0 .5.224.5.5S16.776 11 16.5 11zM9.5 19h-2C7.224 19 7 18.776 7 18.5S7.224 18 7.5 18h2c.276 0 .5.224.5.5S9.776 19 9.5 19zM13.5 21L13.5 21c-.276 0-.5-.224-.5-.5s.224-.5.5-.5l0 0c.276 0 .5.224.5.5S13.776 21 13.5 21zM11.5 11h-4C7.224 11 7 10.776 7 10.5S7.224 10 7.5 10h4c.276 0 .5.224.5.5S11.776 11 11.5 11zM5.5 13h-1C4.224 13 4 12.776 4 12.5S4.224 12 4.5 12h1C5.776 12 6 12.224 6 12.5S5.776 13 5.5 13zM5.5 11h-1C4.224 11 4 10.776 4 10.5S4.224 10 4.5 10h1C5.776 10 6 10.224 6 10.5S5.776 11 5.5 11zM5.5 9h-1C4.224 9 4 8.776 4 8.5S4.224 8 4.5 8h1C5.776 8 6 8.224 6 8.5S5.776 9 5.5 9zM15 15H7.5C7.224 15 7 14.776 7 14.5S7.224 14 7.5 14H15c.276 0 .5.224.5.5S15.276 15 15 15zM13.5 19h-2c-.276 0-.5-.224-.5-.5s.224-.5.5-.5h2c.276 0 .5.224.5.5S13.776 19 13.5 19zM8.5 9h-1C7.224 9 7 8.776 7 8.5S7.224 8 7.5 8h1C8.776 8 9 8.224 9 8.5S8.776 9 8.5 9zM12.5 13h-1c-.276 0-.5-.224-.5-.5s.224-.5.5-.5h1c.276 0 .5.224.5.5S12.776 13 12.5 13z"></path>
  </g>
  <g>
    <path fill="black" d="M23,28c-4.411,0-8-3.589-8-8s3.589-8,8-8s8,3.589,8,8S27.411,28,23,28z M23,13c-3.859,0-7,3.141-7,7
				s3.141,7,7,7s7-3.141,7-7S26.859,13,23,13z"></path>
    <path fill="black" d="M22.501 23c-.033 0-.066-.003-.099-.01-.271-.054-.447-.317-.393-.588l1-5c.055-.272.33-.449.588-.393.271.054.447.317.393.588l-1 5C22.942 22.836 22.734 23 22.501 23zM25.5 23c-.128 0-.256-.049-.354-.146-.195-.195-.195-.512 0-.707L27.293 20l-2.146-2.146c-.195-.195-.195-.512 0-.707s.512-.195.707 0l2.5 2.5c.195.195.195.512 0 .707l-2.5 2.5C25.756 22.951 25.628 23 25.5 23zM20.5 23c-.128 0-.256-.049-.354-.146l-2.5-2.5c-.195-.195-.195-.512 0-.707l2.5-2.5c.195-.195.512-.195.707 0s.195.512 0 .707L18.707 20l2.146 2.146c.195.195.195.512 0 .707C20.756 22.951 20.628 23 20.5 23z"></path>
  </g>
</svg>
